<?xml version="1.0" encoding="iso-8859-1"?>
<!-- Generator: Adobe Illustrator 19.0.0, SVG Export Plug-In . SVG Version: 6.00 Build 0)  -->
<svg version="1.1" id="Capa_1" xmlns="http://www.w3.org/2000/svg" xmlns:xlink="http://www.w3.org/1999/xlink" x="0px" y="0px"
	 viewBox="0 0 512 512" style="enable-background:new 0 0 512 512;" xml:space="preserve">
<g>
	<path style="fill:#B38A65;" d="M295.37,478.58l5.19,29.55c-9.71,1.71-19.66,2.87-29.56,3.44l-1.73-29.95
		C278.01,481.11,286.8,480.09,295.37,478.58z"/>
	<path style="fill:#B38A65;" d="M345.61,463.54l11.9,27.54c-9.09,3.93-18.5,7.36-27.97,10.2l-8.61-28.74
		C329.29,470.04,337.59,467.01,345.61,463.54z"/>
</g>
<path style="fill:#8B8992;" d="M255.59,0.21c-4.98,0.01-9.95,0.16-14.86,0.45l1.76,29.95c4.33-0.25,8.71-0.39,13.1-0.4
	c4.41-0.01,8.83,0.11,13.2,0.35l1.67-29.95C265.54,0.34,260.56,0.2,255.59,0.21z"/>
<path style="fill:#B38A65;" d="M300.02,3.98l-5.12,29.56c8.61,1.5,17.21,3.51,25.57,5.99l8.54-28.75
	C319.53,7.96,309.78,5.68,300.02,3.98z"/>
<path style="fill:#8B8992;" d="M211.17,4.13c-9.75,1.72-19.5,4.03-28.97,6.88l8.64,28.73c8.35-2.51,16.95-4.55,25.55-6.07
	L211.17,4.13z"/>
<path style="fill:#B38A65;" d="M357.02,20.92l-11.84,27.56c8.01,3.45,15.92,7.41,23.49,11.77l14.98-25.99
	C375.07,29.31,366.11,24.83,357.02,20.92z"/>
<path style="fill:#8B8992;" d="M154.24,21.24c-9.07,3.93-18.01,8.44-26.56,13.41l15.06,25.95c7.55-4.39,15.43-8.37,23.43-11.84
	L154.24,21.24z"/>
<path style="fill:#B38A65;" d="M408.53,50.6l-17.89,24.08c7.01,5.21,13.8,10.88,20.16,16.87l20.56-21.85
	C424.15,62.92,416.47,56.49,408.53,50.6z"/>
<path style="fill:#8B8992;" d="M102.85,51.05c-7.91,5.92-15.57,12.37-22.75,19.16l20.61,21.8c6.35-6.01,13.12-11.7,20.11-16.93
	L102.85,51.05z"/>
<path style="fill:#B38A65;" d="M451.81,91.3l-22.93,19.33c5.63,6.69,10.93,13.77,15.74,21.04l25.02-16.55
	C464.19,106.88,458.19,98.86,451.81,91.3z"/>
<path style="fill:#8B8992;" d="M59.7,91.88c-6.36,7.58-12.33,15.62-17.76,23.88L67,132.24c4.8-7.3,10.08-14.39,15.69-21.09
	L59.7,91.88z"/>
<path style="fill:#B38A65;" d="M484.59,140.84l-26.77,13.54c3.94,7.8,7.46,15.9,10.46,24.09l28.17-10.31
	C493.05,158.87,489.06,149.68,484.59,140.84z"/>
<path style="fill:#8B8992;" d="M27.05,141.55c-4.44,8.85-8.4,18.06-11.77,27.36l28.2,10.23c2.97-8.21,6.47-16.33,10.39-24.14
	L27.05,141.55z"/>
<path style="fill:#B38A65;" d="M505.04,196.67l-29.19,6.95c2.02,8.48,3.57,17.18,4.59,25.86l29.79-3.5
	C509.07,216.14,507.33,206.28,505.04,196.67z"/>
<path style="fill:#8B8992;" d="M6.78,197.46c-2.26,9.62-3.98,19.49-5.11,29.33l29.81,3.41c0.99-8.69,2.51-17.39,4.5-25.88
	L6.78,197.46z"/>
<path style="fill:#B38A65;" d="M482,255.74v0.47c0,8.77-0.51,17.6-1.51,26.25l29.81,3.44c1.13-9.78,1.7-19.77,1.7-29.73v-0.52
	L482,255.74z"/>
<path style="fill:#8B8992;" d="M30,256.45l-30,0.03c0.01,9.91,0.59,19.9,1.74,29.69l29.79-3.47C30.53,274.05,30.01,265.22,30,256.45
	z"/>
<path style="fill:#B38A65;" d="M475.96,308.33c-2,8.5-4.53,16.97-7.52,25.18l28.19,10.26c3.39-9.31,6.26-18.91,8.53-28.55
	L475.96,308.33z"/>
<path style="fill:#8B8992;" d="M36.09,308.57L6.9,315.49c2.29,9.63,5.16,19.23,8.56,28.52l28.18-10.29
	C40.65,325.52,38.11,317.06,36.09,308.57z"/>
<path style="fill:#B38A65;" d="M458.02,357.63c-3.92,7.8-8.35,15.45-13.16,22.75l25.05,16.51c5.45-8.27,10.47-16.94,14.91-25.78
	L458.02,357.63z"/>
<path style="fill:#8B8992;" d="M54.07,357.83l-26.78,13.5c4.45,8.82,9.47,17.48,14.92,25.74l25.04-16.52
	C62.43,373.26,58,365.61,54.07,357.83z"/>
<path style="fill:#B38A65;" d="M429.15,401.46c-5.61,6.69-11.68,13.12-18.04,19.12l20.6,21.81c7.19-6.79,14.06-14.07,20.42-21.64
	L429.15,401.46z"/>
<path style="fill:#8B8992;" d="M82.97,401.6l-22.96,19.31c6.37,7.57,13.24,14.85,20.44,21.63l20.57-21.83
	C94.67,414.71,88.59,408.29,82.97,401.6z"/>
<path style="fill:#B38A65;" d="M390.99,437.48c-7.01,5.23-14.38,10.09-21.93,14.46l15.03,25.97c8.55-4.95,16.91-10.46,24.84-16.38
	L390.99,437.48z"/>
<path style="fill:#8B8992;" d="M121.17,437.6l-17.92,24.06c7.94,5.91,16.3,11.42,24.86,16.36l15.01-25.97
	C135.56,447.68,128.18,442.82,121.17,437.6z"/>
<path style="fill:#626169;" d="M345.61,463.75c-8.02,3.47-16.32,6.5-24.68,9l8.61,28.74c9.47-2.84,18.88-6.27,27.97-10.2
	L345.61,463.75z"/>
<path style="fill:#8B8992;" d="M166.6,463.84l-11.87,27.55c9.09,3.92,18.51,7.35,28,10.18l8.57-28.75
	C182.94,470.32,174.63,467.3,166.6,463.84z"/>
<path style="fill:#626169;" d="M295.37,478.79c-8.57,1.51-17.36,2.53-26.1,3.04l1.73,29.95c9.9-0.57,19.85-1.73,29.56-3.44
	L295.37,478.79z"/>
<path style="fill:#8B8992;" d="M216.86,478.84l-5.15,29.55c9.72,1.7,19.66,2.84,29.56,3.4l1.7-29.95
	C234.23,481.34,225.45,480.33,216.86,478.84z"/>
<g>
	<path style="fill:#626169;" d="M268.79,30.56c-4.37-0.24-8.79-0.36-13.2-0.35v-30c4.97-0.01,9.95,0.13,14.87,0.4L268.79,30.56z"/>
	<path style="fill:#626169;" d="M320.47,39.53c-8.36-2.48-16.96-4.49-25.57-5.99l5.12-29.56c9.76,1.7,19.51,3.98,28.99,6.8
		L320.47,39.53z"/>
	<path style="fill:#626169;" d="M368.67,60.25c-7.57-4.36-15.48-8.32-23.49-11.77l11.84-27.56c9.09,3.91,18.05,8.39,26.63,13.34
		L368.67,60.25z"/>
	<path style="fill:#626169;" d="M390.99,437.48l17.94,24.05c-7.93,5.92-16.29,11.43-24.84,16.38l-15.03-25.97
		C376.61,447.57,383.98,442.71,390.99,437.48z"/>
	<path style="fill:#626169;" d="M410.8,91.55c-6.36-5.99-13.15-11.66-20.16-16.87l17.89-24.08c7.94,5.89,15.62,12.32,22.83,19.1
		L410.8,91.55z"/>
	<path style="fill:#626169;" d="M429.15,401.46l22.98,19.29c-6.36,7.57-13.23,14.85-20.42,21.64l-20.6-21.81
		C417.47,414.58,423.54,408.15,429.15,401.46z"/>
</g>
<path style="fill:#83B6FF;" d="M456.99,256.21c0,1.29-0.01,2.57-0.04,3.86v0.01c-0.1,5.25-0.4,10.44-0.9,15.58
	c-7.95,82.52-66.02,150.61-143.31,173.38c-4.98,1.48-10.04,2.75-15.17,3.83c-5.05,1.07-10.17,1.95-15.35,2.62
	c-8.58,1.13-17.34,1.71-26.22,1.71h-0.41c-102.17-0.21-186.68-77.02-199.02-175.93c-1-7.93-1.52-16-1.55-24.19
	c-0.01-0.29-0.01-0.58-0.01-0.87c0-4.77,0.17-9.5,0.5-14.19c7.29-104.1,94.21-186.59,200.08-186.8H256
	c18.99,0,37.36,2.65,54.78,7.59c4.95,1.4,9.82,2.99,14.61,4.76c4.75,1.75,9.41,3.67,13.98,5.77
	c58.23,26.65,101.62,80.32,114.02,144.87C455.75,230.52,456.99,243.22,456.99,256.21z"/>
<path style="fill:#7984EB;" d="M456.99,256.21c0,1.29-0.01,2.57-0.04,3.86v0.01c-0.1,5.25-0.4,10.44-0.9,15.58
	c-7.95,82.52-66.02,150.61-143.31,173.38c-4.98,1.48-10.04,2.75-15.17,3.83c-5.05,1.07-10.17,1.95-15.35,2.62
	c-8.58,1.13-17.34,1.71-26.22,1.71h-0.41V55.22H256c18.99,0,37.36,2.65,54.78,7.59c4.95,1.4,9.82,2.99,14.61,4.76
	c4.75,1.75,9.41,3.67,13.98,5.77c58.23,26.65,101.62,80.32,114.02,144.87C455.75,230.52,456.99,243.22,456.99,256.21z"/>
<g>
	<path style="fill:#2DD729;" d="M456.99,256.21c0,1.29-0.01,2.57-0.04,3.86v0.01c-0.1,5.25-0.4,10.44-0.9,15.58
		c-4.4,0.89-8.83,1.33-13.27,1.33c-0.65,0-1.29-0.01-1.93-0.03h-0.01c-4.96-0.14-9.93-0.83-14.87-2.07
		c-13.18-3.28-26.22-10.43-38.6-21.35c-15.77-13.91-26.43-30.22-30.19-36.43c-3.57-2.9-7.74-5.63-10.99-7.29
		c-3.31,12.8-13.08,22.51-26.14,25.73c-14.17,3.48-28.47-1.58-37.31-13.22c-12.57-16.55-18.14-33.41-16.11-48.78
		c2.28-17.18,13.76-27.54,22.99-35.86c10.53-9.5,12.13-12.04,10.71-17.02c-2.87-10.04-2.48-20.26-0.44-29.74
		c1.08-5.05,2.62-9.89,4.39-14.38c2-5.09,4.28-9.73,6.5-13.74c4.95,1.4,9.82,2.99,14.61,4.76c4.75,1.75,9.41,3.67,13.98,5.77
		c58.23,26.65,101.62,80.32,114.02,144.87C455.75,230.52,456.99,243.22,456.99,256.21z"/>
	<path style="fill:#2DD729;" d="M312.74,449.04c-4.98,1.48-10.04,2.75-15.17,3.83c-5.05,1.07-10.17,1.95-15.35,2.62
		c-8.58,1.13-17.34,1.71-26.22,1.71h-0.41c-102.17-0.21-186.68-77.02-199.02-175.93c-1-7.93-1.52-16-1.55-24.19
		c-0.01-0.29-0.01-0.58-0.01-0.87c0-4.77,0.17-9.5,0.5-14.19l14.9,1.97l14.91,1.97l19.63,2.6l2.36,10.09
		c3.51,14.88,10.41,31.34,14.85,35.81c23.66-3.19,36.66-14.6,38.65-33.94c1.72-16.58,9.72-24.37,16.13-27.99
		c10.79-6.09,24.78-5.17,41.56,2.73c12.22,5.75,21.54,16.46,25.57,29.39c6.8,21.75,3.61,41.33-8.98,55.14
		c-9.99,10.96-14.09,27.31-11.65,35.7c0.85,2.91,1.89,3.2,2.58,3.39c4.64,1.26,16.29,4.79,29.57,11.4
		c8.51,4.23,17.69,9.73,26.12,16.72c11.65,9.65,20.08,20.57,25.18,32.47c2,4.64,3.48,9.43,4.46,14.36
		C312.33,438.77,312.8,443.84,312.74,449.04z"/>
</g>
<g>
	<path style="fill:#00BA63;" d="M311.35,433.83c0.98,4.94,1.45,10.01,1.39,15.21c-4.98,1.48-10.04,2.75-15.17,3.83
		c-5.05,1.07-10.17,1.95-15.35,2.62c-8.58,1.13-17.34,1.71-26.22,1.71h-0.41v-86.92c8.51,4.23,17.69,9.73,26.12,16.72
		c11.65,9.65,20.08,20.57,25.18,32.47C308.89,424.11,310.37,428.9,311.35,433.83z"/>
	<path style="fill:#00BA63;" d="M320.05,235.55c-14.17,3.48-28.47-1.58-37.31-13.22c-12.57-16.55-18.14-33.41-16.11-48.78
		c2.28-17.18,13.76-27.54,22.99-35.86c10.53-9.5,12.13-12.04,10.71-17.02c-2.87-10.04-2.48-20.26-0.44-29.74
		c1.08-5.05,2.62-9.89,4.39-14.38c2-5.09,4.28-9.73,6.5-13.74c4.95,1.4,9.82,2.99,14.61,4.76c4.75,1.75,9.41,3.67,13.98,5.77
		c58.23,26.65,101.62,80.32,114.02,144.87c2.36,12.31,3.6,25.01,3.6,38c0,1.29-0.01,2.57-0.04,3.86v0.01
		c-0.1,5.25-0.4,10.44-0.9,15.58c-4.4,0.89-8.83,1.33-13.27,1.33c-0.65,0-1.29-0.01-1.93-0.03h-0.01
		c-4.96-0.14-9.93-0.83-14.87-2.07c-13.18-3.28-26.22-10.43-38.6-21.35c-15.77-13.91-26.43-30.22-30.19-36.43
		c-3.57-2.9-7.74-5.63-10.99-7.29C342.88,222.62,333.11,232.33,320.05,235.55z"/>
</g>
<g>
	<path style="fill:#626169;" d="M428.88,110.63l22.93-19.33c6.38,7.56,12.38,15.58,17.83,23.82l-25.02,16.55
		C439.81,124.4,434.51,117.32,428.88,110.63z"/>
	<path style="fill:#626169;" d="M458.02,357.63l26.8,13.48c-4.44,8.84-9.46,17.51-14.91,25.78l-25.05-16.51
		C449.67,373.08,454.1,365.43,458.02,357.63z"/>
	<path style="fill:#626169;" d="M457.82,154.38l26.77-13.54c4.47,8.84,8.46,18.03,11.86,27.32l-28.17,10.31
		C465.28,170.28,461.76,162.18,457.82,154.38z"/>
	<path style="fill:#626169;" d="M475.96,308.33l29.2,6.89c-2.27,9.64-5.14,19.24-8.53,28.55l-28.19-10.26
		C471.43,325.3,473.96,316.83,475.96,308.33z"/>
	<path style="fill:#626169;" d="M475.85,203.41l29.19-6.95c2.29,9.61,4.03,19.47,5.19,29.31l-29.79,3.5
		C479.42,220.59,477.87,211.89,475.85,203.41z"/>
	<path style="fill:#626169;" d="M512,255.44v0.52c0,9.96-0.57,19.95-1.7,29.73l-29.81-3.44c1-8.65,1.51-17.48,1.51-26.25v-0.47
		L512,255.44z"/>
</g>
<g>
</g>
<g>
</g>
<g>
</g>
<g>
</g>
<g>
</g>
<g>
</g>
<g>
</g>
<g>
</g>
<g>
</g>
<g>
</g>
<g>
</g>
<g>
</g>
<g>
</g>
<g>
</g>
<g>
</g>
</svg>
