<?xml version="1.0" encoding="iso-8859-1"?>
<!-- Generator: Adobe Illustrator 19.0.0, SVG Export Plug-In . SVG Version: 6.00 Build 0)  -->
<svg version="1.1" id="Capa_1" xmlns="http://www.w3.org/2000/svg" xmlns:xlink="http://www.w3.org/1999/xlink" x="0px" y="0px"
	 viewBox="0 0 512.001 512.001" style="enable-background:new 0 0 512.001 512.001;" xml:space="preserve">
<path style="fill:#83B6FF;" d="M411.996,356.004c0,1.001-0.008,1.995-0.031,2.996v0.008c-0.078,4.075-0.311,8.103-0.699,12.093
	c-6.17,64.047-51.241,116.894-111.228,134.566c-3.865,1.149-7.793,2.134-11.774,2.973c-3.92,0.831-7.893,1.513-11.914,2.034
	c-6.66,0.877-13.459,1.327-20.35,1.327h-0.318c-79.298-0.163-144.889-59.778-154.467-136.545c-0.776-6.155-1.18-12.418-1.203-18.774
	c-0.008-0.225-0.008-0.45-0.008-0.675c0-3.702,0.132-7.374,0.388-11.014c5.658-80.796,73.12-144.819,155.29-144.982H256
	c14.739,0,28.996,2.057,42.517,5.891c3.842,1.087,7.622,2.321,11.34,3.695c3.687,1.358,7.304,2.849,10.851,4.478
	c45.195,20.684,78.871,62.339,88.495,112.439C411.034,336.066,411.996,345.923,411.996,356.004z"/>
<path style="fill:#7984EB;" d="M411.996,356.004c0,1.001-0.008,1.995-0.031,2.996v0.008c-0.078,4.075-0.311,8.103-0.699,12.093
	c-6.17,64.047-51.241,116.894-111.228,134.566c-3.865,1.149-7.793,2.134-11.774,2.973c-3.92,0.831-7.893,1.513-11.914,2.034
	c-6.66,0.877-13.459,1.327-20.35,1.327h-0.318V200.01H256c14.739,0,28.996,2.057,42.517,5.891c3.842,1.087,7.622,2.321,11.34,3.695
	c3.687,1.358,7.304,2.849,10.851,4.478c45.195,20.684,78.871,62.339,88.495,112.439
	C411.034,336.066,411.996,345.923,411.996,356.004z"/>
<g>
	<path style="fill:#2DD729;" d="M411.996,356.004c0,1.001-0.008,1.995-0.031,2.996v0.008c-0.078,4.075-0.311,8.103-0.699,12.093
		c-3.415,0.691-6.854,1.032-10.3,1.032c-0.505,0-1.001-0.008-1.498-0.023h-0.008c-3.85-0.109-7.707-0.644-11.541-1.607
		c-10.23-2.546-20.35-8.095-29.959-16.571c-12.24-10.797-20.513-23.455-23.431-28.275c-2.771-2.251-6.008-4.37-8.53-5.658
		c-2.569,9.935-10.152,17.471-20.288,19.97c-10.998,2.701-22.096-1.226-28.957-10.261c-9.756-12.845-14.079-25.931-12.504-37.86
		c1.77-13.335,10.68-21.374,17.844-27.832c8.173-7.374,9.415-9.345,8.313-13.21c-2.228-7.793-1.925-15.725-0.341-23.082
		c0.838-3.92,2.034-7.676,3.407-11.161c1.552-3.951,3.322-7.552,5.045-10.665c3.842,1.087,7.622,2.321,11.34,3.695
		c3.687,1.358,7.304,2.849,10.851,4.478c45.195,20.684,78.871,62.339,88.495,112.439
		C411.034,336.066,411.996,345.923,411.996,356.004z"/>
	<path style="fill:#2DD729;" d="M300.038,505.667c-3.865,1.149-7.793,2.134-11.774,2.973c-3.92,0.831-7.893,1.513-11.914,2.034
		c-6.66,0.877-13.459,1.327-20.35,1.327h-0.318c-79.298-0.163-144.889-59.778-154.467-136.545
		c-0.776-6.155-1.18-12.418-1.203-18.774c-0.008-0.225-0.008-0.45-0.008-0.675c0-3.702,0.132-7.374,0.388-11.014l11.565,1.529
		l11.573,1.529l15.236,2.018l1.832,7.831c2.724,11.549,8.08,24.324,11.526,27.793c18.363-2.476,28.453-11.332,29.997-26.342
		c1.335-12.869,7.544-18.915,12.519-21.724c8.375-4.727,19.232-4.013,32.256,2.119c9.485,4.463,16.718,12.776,19.845,22.81
		c5.278,16.881,2.802,32.078-6.97,42.797c-7.754,8.507-10.936,21.196-9.042,27.708c0.66,2.258,1.467,2.484,2.003,2.631
		c3.601,0.978,12.644,3.718,22.95,8.848c6.605,3.283,13.73,7.552,20.272,12.977c9.042,7.49,15.585,15.966,19.543,25.201
		c1.552,3.601,2.701,7.319,3.462,11.146C299.72,497.696,300.085,501.631,300.038,505.667z"/>
</g>
<g>
	<path style="fill:#00BA63;" d="M298.959,493.862c0.761,3.834,1.126,7.769,1.079,11.805c-3.865,1.149-7.793,2.134-11.774,2.973
		c-3.92,0.831-7.893,1.513-11.914,2.034C269.691,511.55,262.892,512,256,512h-0.318v-67.462c6.605,3.283,13.73,7.552,20.272,12.977
		c9.042,7.49,15.585,15.966,19.543,25.201C297.05,486.318,298.199,490.036,298.959,493.862z"/>
	<path style="fill:#00BA63;" d="M305.712,339.97c-10.998,2.701-22.096-1.226-28.957-10.261
		c-9.756-12.845-14.079-25.931-12.504-37.86c1.77-13.335,10.68-21.374,17.844-27.832c8.173-7.374,9.415-9.345,8.313-13.21
		c-2.228-7.793-1.925-15.725-0.341-23.082c0.838-3.92,2.034-7.676,3.407-11.161c1.552-3.951,3.322-7.552,5.045-10.665
		c3.842,1.087,7.622,2.321,11.34,3.695c3.687,1.358,7.304,2.849,10.851,4.478c45.195,20.684,78.871,62.339,88.495,112.439
		c1.832,9.555,2.794,19.411,2.794,29.493c0,1.001-0.008,1.995-0.031,2.996v0.008c-0.078,4.075-0.311,8.103-0.699,12.093
		c-3.415,0.691-6.854,1.032-10.3,1.032c-0.505,0-1.001-0.008-1.498-0.023h-0.008c-3.85-0.109-7.707-0.644-11.541-1.607
		c-10.23-2.546-20.35-8.095-29.959-16.571c-12.24-10.797-20.513-23.455-23.431-28.275c-2.771-2.251-6.008-4.37-8.53-5.658
		C323.431,329.934,315.848,337.47,305.712,339.97z"/>
</g>
<path style="fill:#FF9A00;" d="M363.467,211.837c-19.004,31.905-47.374,49.343-48.572,50.072l-4.609,2.8H200.586l-4.164-2.053
	c-1.278-0.621-31.517-15.755-51.492-46.858c-18.239-28.385-31.358-76.026,9.73-141.753l10.403-16.637l19.54,14.98
	c8.875-21.452,26.977-51.936,61.598-68.257L254.974,0l0.707,0.333l8.065,3.799c34.632,16.322,52.724,46.804,61.598,68.257
	l19.414-14.881l10.472,16.448C393.832,134.569,381.023,182.399,363.467,211.837z"/>
<path style="fill:#E67500;" d="M363.467,211.837c-19.004,31.905-47.374,49.343-48.572,50.072l-4.609,2.8h-54.606V0.333l8.065,3.799
	c34.632,16.322,52.724,46.804,61.598,68.257l19.414-14.881l10.472,16.448C393.832,134.569,381.023,182.399,363.467,211.837z"/>
<path style="fill:#FF633E;" d="M318.546,233.399c-10.586,17.753-26.053,27.457-27.776,28.511l-4.62,2.8h-62.385l-4.164-2.053
	c-1.871-0.918-18.593-9.498-29.852-27.016c-10.358-16.133-17.898-43.077,5.042-79.78l10.404-16.637l9.32,7.139
	c12.822-24.46,39.982-33.822,39.982-33.822s0.422,0.153,1.186,0.468c5.647,2.305,29.898,13.189,38.807,33.354l9.183-7.04
	l10.472,16.448C335.771,189.737,328.47,216.735,318.546,233.399z"/>
<path style="fill:#FF3300;" d="M318.546,233.399c-10.586,17.753-26.053,27.457-27.776,28.511l-4.62,2.8h-30.468V113.008
	c5.647,2.305,29.898,13.189,38.807,33.354l9.183-7.04l10.472,16.448C335.771,189.737,328.47,216.735,318.546,233.399z"/>
<g>
</g>
<g>
</g>
<g>
</g>
<g>
</g>
<g>
</g>
<g>
</g>
<g>
</g>
<g>
</g>
<g>
</g>
<g>
</g>
<g>
</g>
<g>
</g>
<g>
</g>
<g>
</g>
<g>
</g>
</svg>
